<?xml version="1.0" encoding="utf-8"?>
<!-- Generator: Adobe Illustrator 24.2.3, SVG Export Plug-In . SVG Version: 6.00 Build 0)  -->
<svg version="1.1" id="Layer_1" xmlns="http://www.w3.org/2000/svg" xmlns:xlink="http://www.w3.org/1999/xlink" x="0px" y="0px"
	 viewBox="0 0 100 32.7" style="enable-background:new 0 0 100 32.7;" xml:space="preserve">
<style type="text/css">
	.st0{fill:#FFFFFF;}
</style>
<g id="Layer_2_1_">
	<g id="Layer_1-2">
		<path class="st0" d="M26.1,21.6c-0.4,1-0.9,1.9-1.5,2.7c-1,1.4-2.3,3.3-4,3.3c-1.5,0-1.9-1-3.9-1s-2.4,1-3.9,1
			c-1.7,0-2.9-1.6-3.9-3.1c-2.7-4-2.9-8.8-1.3-11.3c1.2-1.8,3-2.8,4.7-2.8s2.9,1,4.3,1s2.3-1,4.3-1c1.7,0.1,3.3,0.9,4.3,2.3
			C21.6,14.7,22.2,20.2,26.1,21.6z"/>
		<path class="st0" d="M19.5,8.7c0.8-1,1.2-2.3,1.1-3.7c-1.3,0.2-2.6,0.8-3.4,1.9c-0.7,0.9-1.4,2.3-1.1,3.6
			C17.4,10.5,18.7,9.8,19.5,8.7z"/>
		<path class="st0" d="M34.2,13.1l-3.8,11.2h1.7l1.1-3.4h3.7l1.2,3.4h1.8l-3.8-11.2L34.2,13.1z M35.1,15c0.1,0.5,0.3,1,0.4,1.6l1,3
			h-2.9l1-3C34.8,16.1,34.9,15.5,35.1,15z"/>
		<path class="st0" d="M44.8,16.1c-1.1,0-2.1,0.4-2.7,1.3L42,16.3h-1.6v0.1c0,0.7,0.1,1.5,0.1,2.6v8.6h1.7v-4c0.6,0.7,1.4,1,2.3,1
			c1,0,1.9-0.4,2.6-1.1c0.8-0.9,1.2-2.1,1.1-3.3c0-1.1-0.3-2.1-1-3C46.7,16.5,45.8,16,44.8,16.1z M44.4,17.5c1.5,0,2.2,1.4,2.2,2.8
			c0,1.8-0.9,2.9-2.3,2.9c-1,0-1.8-0.7-2-1.6c0-0.2-0.1-0.4-0.1-0.5v-1.4c0-0.1,0-0.3,0.1-0.4v-0.1C42.6,18.2,43.4,17.5,44.4,17.5z"
			/>
		<path class="st0" d="M53.6,16.1c-1.1,0-2.1,0.4-2.7,1.3l-0.1-1.1h-1.6v0.1c0,0.7,0.1,1.5,0.1,2.6v8.6H51v-4c0.6,0.7,1.4,1,2.3,1
			c1,0,1.9-0.4,2.6-1.1c0.8-0.9,1.2-2.1,1.1-3.3c0-1.1-0.3-2.1-1-3C55.4,16.5,54.5,16,53.6,16.1z M53.2,17.5c1.5,0,2.2,1.4,2.2,2.8
			c0,1.8-0.9,2.9-2.3,2.9c-1,0-1.8-0.7-2-1.6c0-0.2-0.1-0.4-0.1-0.5v-1.4c0-0.1,0-0.3,0.1-0.4v-0.1C51.3,18.2,52.2,17.5,53.2,17.5
			L53.2,17.5z"/>
		<path class="st0" d="M64.5,17.9c-1.6-0.6-2.1-1.1-2.1-2c0-0.7,0.6-1.5,1.9-1.5c0.7,0,1.4,0.2,2,0.5l0.1,0.1l0.5-1.4l-0.1-0.1
			c-0.8-0.4-1.6-0.6-2.5-0.5c-2.2,0-3.7,1.3-3.7,3.1c0,1.5,0.9,2.5,3,3.2c1.4,0.5,2,1.1,2,2c0,1.1-0.8,1.7-2.2,1.7
			c-0.9,0-1.7-0.2-2.4-0.7l-0.1-0.1l-0.5,1.4l0.1,0.1c0.9,0.5,1.9,0.7,2.9,0.7c2.9,0,3.9-1.8,3.9-3.3S66.5,18.7,64.5,17.9z"/>
		<path class="st0" d="M70.4,14.3l-1.7,0.5v1.4h-1.2v1.4h1.2v4.1c0,1,0.2,1.7,0.6,2.2c0.4,0.4,1,0.7,1.6,0.6c0.4,0,0.9-0.1,1.3-0.2
			h0.1l-0.1-1.4l0,0.1c-0.3,0.1-0.5,0.1-0.8,0.1c-0.7,0-0.9-0.4-0.9-1.4v-4.1h2v-1.4h-2L70.4,14.3z"/>
		<path class="st0" d="M76.7,16.1c-2.4,0-4,1.8-4,4.3s1.6,4.2,3.9,4.2l0,0c1.9,0,4-1.4,4-4.3c0-1.1-0.3-2.2-1.1-3
			C78.8,16.4,77.7,16,76.7,16.1z M76.6,17.4c1.5,0,2.2,1.5,2.2,2.9c0,1.7-0.9,2.9-2.3,2.9l0,0c-1.3,0-2.2-1.2-2.2-2.9
			C74.4,18.9,75.1,17.4,76.6,17.4z"/>
		<path class="st0" d="M85.8,16.1L85.8,16.1c-0.2,0-0.4-0.1-0.5-0.1c-0.9,0-1.7,0.5-2.1,1.4v-1.2h-1.5v0.1c0,0.7,0.1,1.4,0.1,2.4
			v5.5h1.7V20c0-0.2,0-0.4,0-0.7c0.2-1,0.9-1.7,1.8-1.7c0.2,0,0.3,0,0.5,0H86L85.8,16.1z"/>
		<path class="st0" d="M89.6,16c-2.3,0-3.8,1.8-3.8,4.4c0,2.5,1.6,4.1,4,4.1c0.9,0,1.8-0.2,2.7-0.5h0.1l-0.3-1.3l-0.1,0.1
			c-0.7,0.3-1.4,0.4-2.1,0.4s-2.4-0.2-2.5-2.5h5.5v-0.1c0-0.2,0.1-0.5,0.1-0.7C93,18.1,92.1,16,89.6,16z M89.5,17.3
			c0.5,0,0.9,0.2,1.2,0.5c0.4,0.4,0.6,1,0.6,1.6h-3.9C87.6,18.4,88.2,17.3,89.5,17.3L89.5,17.3z"/>
		<path class="st0" d="M30.4,5.5c0.5-0.1,1.1-0.1,1.6-0.1c1.1,0,1.9,0.2,2.4,0.7C35,6.6,35.3,7.3,35.2,8c0,0.8-0.3,1.5-0.9,2.1
			c-0.6,0.5-1.5,0.8-2.6,0.8c-0.5,0-0.9,0-1.4-0.1V5.5H30.4z M31.1,10.2c0.3,0,0.5,0,0.8,0c1.6,0,2.5-0.8,2.5-2.3c0-1.3-0.8-2-2.4-2
			c-0.3,0-0.6,0-0.9,0.1V10.2z"/>
		<path class="st0" d="M38,10.8c-1.1,0.1-2-0.7-2-1.8c0-0.1,0-0.1,0-0.2c0-1.1,0.8-2,1.9-2c0.1,0,0.1,0,0.2,0c1-0.1,2,0.7,2,1.7
			c0,0.1,0,0.1,0,0.2c0,1.1-0.8,2-1.9,2C38.1,10.8,38,10.8,38,10.8L38,10.8z M38,10.3c0.7,0,1.3-0.6,1.3-1.5c0-0.6-0.4-1.5-1.3-1.5
			s-1.3,0.8-1.3,1.5C36.7,9.6,37.2,10.3,38,10.3L38,10.3z"/>
		<path class="st0" d="M41.3,6.9l0.6,1.9c0.1,0.4,0.2,0.8,0.3,1.2l0,0c0.1-0.4,0.2-0.8,0.4-1.2l0.7-1.9h0.6l0.7,1.9
			c0.2,0.4,0.3,0.9,0.4,1.2l0,0c0.1-0.4,0.2-0.8,0.3-1.2l0.6-1.9h0.8l-1.4,3.8h-0.7L44,8.9c-0.1-0.4-0.3-0.8-0.4-1.3l0,0
			c-0.1,0.4-0.2,0.9-0.4,1.3l-0.7,1.8h-0.7l-1.3-3.8L41.3,6.9z"/>
		<path class="st0" d="M47.4,7.9c0-0.4,0-0.7,0-1h0.7v0.6l0,0c0.3-0.5,0.8-0.7,1.4-0.7c0.6,0,1.5,0.3,1.5,1.6v2.3h-0.8V8.5
			c0-0.6-0.3-1.1-1-1.1c-0.5,0-0.9,0.3-1,0.7c0,0.1-0.1,0.2-0.1,0.3v2.3h-0.8L47.4,7.9z"/>
		<path class="st0" d="M52.3,5.1H53v5.6h-0.8L52.3,5.1L52.3,5.1z"/>
		<path class="st0" d="M56,10.8c-1.1,0.1-2-0.7-2-1.8c0-0.1,0-0.1,0-0.2c0-1.1,0.8-2,1.9-2c0.1,0,0.1,0,0.2,0c1-0.1,2,0.7,2,1.7
			c0,0.1,0,0.1,0,0.2c0,1.1-0.8,2-1.9,2C56.2,10.8,56.1,10.8,56,10.8L56,10.8z M56.1,10.3c0.7,0,1.3-0.6,1.3-1.5
			c0-0.6-0.4-1.5-1.3-1.5s-1.3,0.8-1.3,1.5C54.8,9.7,55.3,10.3,56.1,10.3L56.1,10.3z"/>
		<path class="st0" d="M62.1,9.8c0,0.3,0,0.6,0.1,0.9h-0.7l-0.1-0.5l0,0c-0.3,0.4-0.8,0.6-1.3,0.6c-0.9,0-1.3-0.5-1.3-1.1
			c0-0.9,0.9-1.4,2.5-1.4V8.2c0-0.3-0.1-0.9-1-0.9c-0.4,0-0.8,0.1-1.1,0.3L59,7.1c0.4-0.2,0.9-0.3,1.4-0.3c1.3,0,1.6,0.8,1.6,1.6
			L62.1,9.8z M61.4,8.8c-0.8,0-1.8,0.1-1.8,0.9c0,0.4,0.3,0.7,0.6,0.7h0.1c0.4,0,0.9-0.2,1-0.6c0-0.1,0-0.1,0-0.2V8.8H61.4z"/>
		<path class="st0" d="M67,5.1v4.6c0,0.3,0,0.7,0,1h-0.7V10l0,0c-0.3,0.5-0.9,0.8-1.4,0.7c-1,0-1.8-0.8-1.8-1.8V8.8
			c-0.1-1,0.7-2,1.7-2c0.1,0,0.1,0,0.2,0c0.5,0,1,0.2,1.3,0.6l0,0V5.1H67z M66.2,8.5c0-0.1,0-0.2,0-0.3c-0.1-0.5-0.6-0.8-1.1-0.8
			c-0.8,0-1.3,0.6-1.3,1.5s0.4,1.4,1.3,1.4c0.5,0,1-0.3,1.1-0.8c0-0.1,0-0.2,0-0.3V8.5z"/>
		<path class="st0" d="M71.9,10.8c-1.1,0.1-2-0.7-2-1.8c0-0.1,0-0.1,0-0.2c0-1.1,0.8-2,1.9-2c0.1,0,0.1,0,0.2,0c1-0.1,2,0.7,2,1.7
			c0,0.1,0,0.1,0,0.2c0,1.1-0.8,2-1.9,2C72,10.8,71.9,10.8,71.9,10.8L71.9,10.8z M71.9,10.3c0.7,0,1.3-0.6,1.3-1.5
			c0-0.6-0.4-1.5-1.3-1.5s-1.3,0.8-1.3,1.5C70.6,9.6,71.1,10.3,71.9,10.3L71.9,10.3z"/>
		<path class="st0" d="M74.9,7.9c0-0.4,0-0.7,0-1h0.7v0.6l0,0C76,7.1,76.5,6.8,77,6.8c0.6,0,1.5,0.3,1.5,1.6v2.3h-0.8V8.5
			c0-0.6-0.3-1.1-1-1.1c-0.5,0-0.9,0.3-1,0.7c0,0.1-0.1,0.2-0.1,0.3v2.3h-0.8L74.9,7.9z"/>
		<path class="st0" d="M82.6,6v0.9h1.1v0.5h-1.1v2.1c0,0.5,0.2,0.7,0.6,0.7c0.1,0,0.3,0,0.4,0v0.5c-0.2,0.1-0.5,0.1-0.7,0.1
			c-0.3,0-0.6-0.1-0.8-0.3c-0.2-0.3-0.3-0.6-0.3-1V7.4h-0.7V6.9h0.7V6.2L82.6,6z"/>
		<path class="st0" d="M84.5,5.1h0.8v2.4l0,0c0.1-0.2,0.3-0.4,0.6-0.5c0.2-0.1,0.5-0.2,0.8-0.2c0.6,0,1.5,0.3,1.5,1.6v2.3h-0.8V8.5
			c0-0.6-0.3-1.1-1-1.1c-0.5,0-0.9,0.3-1,0.7c0,0.1-0.1,0.2-0.1,0.3v2.3h-0.8V5.1z"/>
		<path class="st0" d="M89.8,8.9c0,0.9,0.7,1.3,1.4,1.3c0.4,0,0.8-0.1,1.2-0.2l0.1,0.5c-0.5,0.2-0.9,0.3-1.4,0.2
			c-1.3,0-2.1-0.8-2.1-1.9c-0.1-1.1,0.7-2,1.8-2.1c0.1,0,0.1,0,0.2,0c1.4,0,1.7,1.1,1.7,1.8c0,0.1,0,0.2,0,0.3L89.8,8.9z M92.1,8.4
			c0.1-0.6-0.3-1.1-0.9-1.1c0,0-0.1,0-0.2,0c-0.6,0-1.1,0.5-1.2,1.1H92.1z"/>
	</g>
</g>
</svg>
