<?xml version="1.0" encoding="utf-8"?>
<!-- Generator: Adobe Illustrator 24.2.3, SVG Export Plug-In . SVG Version: 6.00 Build 0)  -->
<svg version="1.1" id="Layer_1" xmlns="http://www.w3.org/2000/svg" xmlns:xlink="http://www.w3.org/1999/xlink" x="0px" y="0px"
	 viewBox="0 0 1920 1080" style="enable-background:new 0 0 1920 1080;" xml:space="preserve">
<style type="text/css">
	.st0{fill-rule:evenodd;clip-rule:evenodd;fill:url(#SVGID_1_);}
</style>
<g>
	<g>
		
			<linearGradient id="SVGID_1_" gradientUnits="userSpaceOnUse" x1="23061.7773" y1="-5557.9082" x2="25480.5176" y2="-5557.9082" gradientTransform="matrix(0.2833 0 0 -0.2833 -5917.1777 -1034.7555)">
			<stop  offset="0" style="stop-color:#F7AC40"/>
			<stop  offset="1" style="stop-color:#D1D82F"/>
		</linearGradient>
		<path class="st0" d="M1300.7,200.8c-2.3-19.2-6.6-38.1-16.2-55.4c-19.5-35.1-48.6-62-84.3-82.8l-8.6-4.9c-0.7-0.4-1.4-0.8-2.1-1.1
			c-2-1.1-4.5-1.8-6.6-2.6c2,4.1,28.8,37.2,39.3,50.4c17.4,22.4,28.5,47.5,31.7,74.7c2.2,18.1,1.6,36.4,1.2,54.6
			c-0.3,10.2-6,31.1-6.8,31.4c-28-64.4-77.7-107-150.9-125.7c1.6,2.9,3.6,5.6,6,7.8c10.7,9.7,21.7,19.2,32.2,28.9
			c14.8,13.6,28.4,28.2,38.2,45.1c18.5,31.8,24,66.3,20.9,101.8c-0.8,9.3-3.9,19-8.3,27.5c-6.1,11.7-17.6,19.7-28.8,27.4
			c-32.2,21.9-67,39.4-102.4,56.4c-3.2,1.5-6.4,3-10.1,4.7c0-1.9-0.2-3.2,0-4.5c1.1-7.7,2.4-15.4,3.4-23.1
			c3.3-24.6-1.3-47.5-16.2-68.5c-8.6-12.2-18.6-23-32.5-30.3c-1.9-0.9-3.9-1.5-7.3-2.9c2.3,4.6,3.7,7.8,5.4,10.9
			c11.2,20.3,17.7,41.5,16.4,64.6c-1.9,32.4-13.5,60.6-41.2,82.1c-15.1,11.7-31.7,17.5-51.7,11c-34.4-11.1-65.1-47.6-65-84.4
			c0.1-17.1,10.3-63.6,9.8-63.8c-36.5,32.8-49.9,71.9-36.1,118.6c-2.3-1.1-3.5-1.6-4.5-2.2c-32.1-16.7-58.4-39-78.8-67.3
			c-6.3-8.7-12.3-17.7-10.8-28.5c1.5-10.4,3.9-20.9,7.3-30.9c7.6-22.2,21.7-41.3,37.6-58.9c18.1-20,37.2-39.1,55.8-58.5
			c2-2.2,3.7-4.5,5.6-6.8c-0.4-0.4-43.4,17.4-63.1,29c-19.8,11.7-38.3,24.7-55.9,41.1c1.9-21.3,6.7-41.1,13.2-60.3c0,0,0,0,0-0.1
			c1.9-5.5,3.9-11,6-16.4c3.4-8.9,7.5-17.5,12.1-25.9c7.9-14.6,17-28.6,26.1-42.6c-2.5,0.8-5.1,1.9-7.7,3.3
			c-0.2,0.2-0.5,0.3-0.7,0.4c-1,0.6-2,1.2-3.1,1.8L769,126c-1.3,0.8-2.7,1.7-4,2.7c-0.8,0.6-1.7,1.3-2.5,1.9
			c-4.6,3.6-9.3,7.9-14,12.7c-12,12.5-22,26-30.8,40.3c-5.9,9.5-11.1,19.2-16,29.2c-9.2,18.8-15.5,38.4-17.1,58.8
			c-2,26.2,2.5,51.8,11.5,76.8c16.9,46.9,47.7,83.5,93.1,110.2c29.3,17.2,61.2,28.6,94.1,38.3c8.7,2.6,17.2,5.8,26.8,9.1
			c-4.5,1.5-7.8,2.8-11.2,3.7c-13.8,3.8-24.8,10.7-33.8,21.2c-5.7,6.7-13,12.7-20.9,17.1c-14.9,8.4-31.5,11.6-49.2,11.9
			c-12.1,0.2-24.5,2.5-36.2,5.6c-12.7,3.3-16.8,12.5-12.7,23.9c2.9,7.7,5.9,15.3,9.3,22.8c5.1,11,10.8,21.7,22.6,28.5
			c12.2,6.9,25.9,8.4,39.6,9.3c15.5,1.1,31.2,1,46.8,2.3c13,1.1,24.5,5.4,30.3,17.7c6.3,13.4,5.9,26.9,1.6,40.4
			c-6.1,18.8-19.3,32.9-36.9,43.6c-15.7,9.6-32.7,16.4-52.1,16.7c-15.2,0.2-30.5,0-45.7,0.2c-24.9,0.4-48.9,5.2-71.6,14.8
			c-26.4,11.2-48,28.5-68.9,46.4c-1.1,0.9-1.8,2.2-3.6,4.5c0.2,0,0.4,0,0.5,0c3.3-0.3,5.2-0.4,7.2-0.8c4.5-0.8,9.1-1.8,13.6-2.7
			c12.5-2.5,24.9-5.1,37.5-6.3c36.7-3.7,72.8-0.1,107.8,10.9c18.2,5.7,35.2,13.4,51.1,22.6c16.1,9.3,31.1,20.1,45.5,31.9
			c29.8,24.6,48,56.2,62,90c5.8,14.2,11.2,28.6,16.8,43.3v0.1c0.4-0.3,0.8-0.5,1.1-0.7c1.5-0.9,2.9-1.7,4-2.6
			c8.8-8.6,18.4-16.7,26.1-26c24-28.5,41.5-60.2,55-93.7c2.3-5.7,4.5-11.5,6.6-17.4c16-44.4,28.8-89.5,28.1-136.9
			c-0.4-24.9-1.3-49.7-7-74.2c-5.8-24.2-16-47-28.7-68.8c-3.5-5.9-6.7-12-10.2-18.4c1.9-0.6,3.1-1.1,4.3-1.3
			c9.3-1.5,18.6-2.7,27.9-4.1c20.9-3.4,39.5-11.1,54.5-25.1c10.6-10,15.7-22.9,21.8-35.3c4.1-8.2,1.5-12.3-8.6-12.4
			c-17.2-0.1-34.5-0.3-51.7,0.2c-17.8,0.6-34.4,5.1-48.5,15.3c-6,4.3-17.7,14.3-18.2,14.3c0.6-10.7,1.1-21.3,1.6-32
			c0.3-7.9,4.5-13.8,11.5-18.1c9.9-6.2,19.5-12.8,29.9-18.2c40.6-21.2,82.4-40.6,120.9-65.1c26.9-17.2,54.6-33.4,76.2-56.6
			c20.4-22.1,35.2-46.7,42.1-74.8C1303.9,249.8,1303.6,225.3,1300.7,200.8z M1124,522.8c-7.5,13.7-32.6,32.5-33.2,32.5
			c3.8-7.7,7.7-15.6,11.8-24c-22.3,0.4-43,6.5-64.5,13.6C1049.7,526.8,1094.6,516.7,1124,522.8z M983.8,767.9
			c5.8,40.2,6.5,80.7,1.5,121c-2.8,22.3-11.4,71.6-13.4,74c-1-3-2.2-6.1-3.1-9.2c-5.1-17.1-10.4-34.1-15.2-51.3
			c-8.8-31.7-28.8-55.9-58.6-73.7c-21.2-12.6-44.6-20.5-67.9-28.9c-1.5-0.5-5-2.1-6.1-3.5c50.2-3.4,91.8,14.2,131.4,38.8
			c14.1-60.2,2.2-115.2-37.2-165.4c0.6-0.3,6.7,1.9,9,3.5C959.5,696.7,978.1,729,983.8,767.9z M915.7,558.8c0.8-2.2,0.9-5.4,2.6-6.3
			c3.6-1.9,7.9-3.2,12-3.7c7.5-0.9,13.6,2.6,21.4,6c-7.7,1.1-13.6,1.9-19.5,3c-3.4,0.7-6.5,2.4-9.8,2.8
			C920.3,560.9,917.9,559.5,915.7,558.8z M960.1,529.8c3.2,1.5,9.3,6,9.2,6.6c-7.6-0.5-15.3-1.2-22.9-1.4
			c-19.1-0.5-35.8,3.8-46.9,19.7c-2,2.9-6.2,5.6-9.9,6.4c-15.3,3.5-60.2,7.7-60.3,7.2c9-3,18-6,27-9.1c11.7-4,20.7-11.5,29-19.7
			C903.3,522.1,933.6,517.3,960.1,529.8z"/>
	</g>
</g>
</svg>
